
        <svg xmlns="http://www.w3.org/2000/svg" xmlns:xlink="http://www.w3.org/1999/xlink" version="1.1" width="3256" 
        height="3256" viewBox="0 0 3256 3256">
			
			<g transform="scale(12.8) translate(10, 10)">
				<defs id="SvgjsDefs3782"></defs><g id="SvgjsG3783" featureKey="rootContainer" transform="matrix(2.34375,0,0,2.34375,0,0)" fill="#027bfd"><circle xmlns="http://www.w3.org/2000/svg" cx="50" cy="50" r="50"></circle></g><g id="SvgjsG3784" featureKey="symbolFeature-0" transform="matrix(0.9473340900213846,0,0,0.9473340900213846,71.59833032234128,55.52926554781635)" fill="#ffffff"><path xmlns="http://www.w3.org/2000/svg" d="M93.572,44.004h-3.624c-0.632,0-1.236,0.304-1.608,0.816l-1.724,2.344L83.52,31.616c-0.176-0.896-0.928-1.552-1.836-1.604  c-0.983-0.032-1.744,0.508-2.027,1.364l-5.813,17.468l-2.336-9.384c-0.212-0.848-0.943-1.46-1.82-1.512  c-0.955-0.056-1.68,0.464-1.992,1.28L64.368,48h-2.796V12c0-0.78-0.452-1.484-1.16-1.812c-0.704-0.336-1.536-0.22-2.133,0.284  L32.836,32H17.6C7.808,32,0.424,38.88,0.424,48c0,9.124,7.384,16,17.176,16h15.236l25.439,21.532C58.648,85.844,59.104,86,59.568,86  c0.283,0,0.58-0.064,0.84-0.188c0.708-0.32,1.16-1.033,1.16-1.813V52h4.172c0.832,0,1.58-0.516,1.871-1.288l1.561-4.088l2.448,9.868  c0.216,0.859,0.976,1.476,1.864,1.516c0.031,0,0.06,0,0.084,0c0.859,0,1.623-0.548,1.904-1.367l5.6-16.841l2.512,12.593  c0.156,0.779,0.752,1.399,1.527,1.571c0.769,0.164,1.58-0.132,2.049-0.772l3.804-5.179h2.612c1.104,0,2-0.9,2-2  C95.576,44.9,94.672,44.004,93.572,44.004z"></path></g><g id="SvgjsG3785" featureKey="nameFeature-0" transform="matrix(0.44642788212422,0,0,0.44642788212422,40.72451089355513,151.89826411106566)" fill="#ffffff"><path d="M2.8571 35.7143 l0 -24.286 l7.4286 0 l0 22.286 l15.429 0 l0 6.2857 l-18.571 0 z M30.8571 40 l0 -24.286 l4.2857 -4.2857 l16.571 0 l4.2857 4.2857 l0 24.286 l-7.4286 0 l0 -8 l-10.286 0 l0 8 l-7.4286 0 z M38.286 25.714 l10.286 0 l0 -8 l-10.286 0 l0 8 z M80.28528571428572 11.428999999999998 l7.4286 0 l0 28.571 l-6.5714 0 l-11.143 -16 l0 16 l-7.4286 0 l0 -28.571 l6.5714 0 l11.143 15.886 l0 -15.886 z M115.14257142857143 11.428999999999998 l4.2857 4.2857 l0 20 l-4.2857 4.2857 l-20.857 0 l0 -28.571 l20.857 0 z M111.99957142857143 33.7143 l0 -16 l-10.286 0 l0 16 l10.286 0 z M125.14285714285714 40 l0 -5.7143 l2.2857 0 l0 -17.143 l-2.2857 0 l0 -5.7143 l12 0 l0 5.7143 l-2.2857 0 l0 17.143 l2.2857 0 l0 5.7143 l-12 0 z M160.571 11.428999999999998 l7.4286 0 l0 28.571 l-6.5714 0 l-11.143 -16 l0 16 l-7.4286 0 l0 -28.571 l6.5714 0 l11.143 15.886 l0 -15.886 z M192.57128571428572 17.714 l-10.571 0 l0 16 l10.857 0 l0 -4.8571 l-6.5714 0 l0 -6.2857 l14 0 l0 13.143 l-4.2857 4.2857 l-17.143 0 l-4.2857 -4.2857 l0 -20 l4.2857 -4.2857 l17.143 0 l4.2857 4.2857 l0 4.2857 l-5.4286 0 z M245.42885714285714 11.428999999999998 l0 6.2857 l-14.571 16 l14.571 0 l0 6.2857 l-24.286 0 l0 -6.2857 l14.571 -16 l-14.571 0 l0 -6.2857 l24.286 0 z M271.9997142857143 11.428999999999998 l4.2857 4.2857 l0 20 l-4.2857 4.2857 l-16.571 0 l-4.2857 -4.2857 l0 -20 l4.2857 -4.2857 l16.571 0 z M268.8567142857143 33.7143 l0 -16 l-10.286 0 l0 16 l10.286 0 z M300.571 11.428999999999998 l7.4286 0 l0 28.571 l-6.5714 0 l-11.143 -16 l0 16 l-7.4286 0 l0 -28.571 l6.5714 0 l11.143 15.886 l0 -15.886 z M338.8572857142857 17.714 l-16.857 0 l0 4.8571 l14.571 0 l0 6.2857 l-14.571 0 l0 4.8571 l16.857 0 l0 6.2857 l-20 0 l-4.2857 -4.2857 l0 -24.286 l24.286 0 l0 6.2857 z"></path></g>
			</g>
		</svg>
	