<?xml version="1.0" standalone="no"?>
<!DOCTYPE svg PUBLIC "-//W3C//DTD SVG 20010904//EN"
 "http://www.w3.org/TR/2001/REC-SVG-20010904/DTD/svg10.dtd">
<svg version="1.0" xmlns="http://www.w3.org/2000/svg"
 width="3256.000000pt" height="3256.000000pt" viewBox="0 0 3256.000000 3256.000000"
 preserveAspectRatio="xMidYMid meet">
<metadata>
Created by potrace 1.14, written by Peter Selinger 2001-2017
</metadata>
<g transform="translate(0.000000,3256.000000) scale(0.100000,-0.100000)"
fill="#000000" stroke="none">
<path d="M15695 31269 c-658 -24 -1475 -116 -2170 -245 -1514 -282 -3021 -815
-4380 -1550 -463 -250 -1088 -637 -1504 -932 -1661 -1174 -3054 -2654 -4123
-4382 -847 -1368 -1474 -2889 -1843 -4466 -338 -1445 -461 -2958 -359 -4424
194 -2811 1146 -5457 2783 -7740 716 -999 1564 -1916 2511 -2716 880 -742
1884 -1406 2913 -1925 2821 -1422 6019 -1919 9137 -1418 1761 282 3509 898
5035 1771 1572 901 2894 2002 4070 3392 1348 1594 2376 3535 2950 5571 478
1694 655 3473 520 5230 -239 3102 -1450 6078 -3441 8455 -431 516 -814 918
-1349 1420 -183 171 -545 482 -800 687 -660 528 -1482 1073 -2230 1477 -1580
854 -3324 1423 -5104 1666 -870 119 -1721 161 -2616 129z m2046 -8321 c51 -15
114 -69 142 -122 l22 -41 3 -2217 2 -2218 169 0 170 0 19 53 c251 663 398
1039 417 1069 53 80 173 117 272 84 52 -17 114 -70 139 -118 7 -14 79 -287
158 -605 117 -468 146 -573 154 -553 5 14 166 497 358 1075 l349 1050 50 51
c55 57 96 74 180 74 28 0 68 -9 91 -19 52 -24 111 -93 128 -151 7 -25 96 -462
197 -972 101 -510 186 -928 189 -928 3 0 54 68 114 151 60 82 122 161 138 174
58 49 114 57 396 53 243 -3 259 -4 298 -25 195 -104 173 -381 -35 -451 -21 -7
-103 -12 -210 -12 l-177 0 -239 -327 c-147 -199 -255 -337 -278 -354 -44 -32
-133 -54 -180 -44 -76 17 -153 78 -181 145 -8 19 -83 382 -167 805 l-152 770
-342 -1025 c-188 -564 -349 -1038 -358 -1055 -50 -97 -177 -147 -288 -113 -47
14 -113 68 -136 112 -9 17 -85 306 -169 641 -126 506 -154 606 -162 585 -5
-14 -47 -121 -91 -239 -96 -249 -108 -275 -153 -318 -63 -60 -78 -63 -388 -63
l-280 0 -2 -1977 -3 -1978 -27 -46 c-48 -82 -124 -124 -219 -121 -81 2 -113
21 -276 160 -76 65 -696 590 -1378 1167 -682 577 -1316 1114 -1408 1192 l-168
143 -978 0 c-970 0 -1081 3 -1276 35 -384 64 -744 232 -1037 483 -155 131
-315 332 -421 524 -80 144 -159 374 -193 563 -22 120 -30 445 -14 573 110 899
816 1567 1780 1687 104 13 288 15 1130 15 l1005 1 1559 1319 c1097 928 1572
1324 1600 1334 51 18 107 20 157 4z m-10661 -12398 l0 -640 440 0 440 0 0
-180 0 -180 -527 0 -528 0 -122 122 -123 123 0 697 0 698 210 0 210 0 0 -640z
m2487 518 l123 -122 0 -698 0 -698 -210 0 -210 0 0 230 0 230 -295 0 -295 0 0
-230 0 -230 -210 0 -210 0 0 697 0 698 122 122 123 123 469 0 469 0 124 -122z
m1192 -334 l316 -451 5 451 5 451 210 0 210 0 0 -815 0 -815 -189 0 -189 0
-316 453 -316 454 -3 -456 -2 -456 -210 0 -210 0 0 820 0 820 187 -2 186 -3
316 -451z m2433 329 l128 -128 0 -571 0 -571 -125 -122 -125 -121 -595 0 -595
0 0 813 c0 448 3 817 7 820 3 4 270 7 592 7 l586 0 127 -127z m1136 -40 l2
-163 -65 0 -65 0 0 -490 0 -490 65 0 65 0 0 -165 0 -165 -342 2 -343 3 0 160
0 160 63 3 62 3 0 489 0 490 -65 0 -65 0 0 158 c0 87 3 162 7 165 4 4 158 6
342 5 l336 -3 3 -162z m1018 -288 l319 -455 3 455 2 455 210 0 210 0 0 -820 0
-820 -187 2 -187 3 -121 172 c-66 95 -208 298 -315 452 l-195 280 -3 -455 -2
-454 -210 0 -210 0 0 820 0 820 184 0 184 0 318 -455z m2467 327 l128 -128 -3
-119 -3 -120 -150 -3 -150 -2 -65 65 -64 65 -308 0 -308 0 0 -455 0 -455 310
0 310 0 0 140 0 140 -185 0 -185 0 0 180 0 180 400 0 400 0 0 -377 0 -378
-122 -122 -123 -123 -490 0 -490 0 -122 122 -123 123 0 575 0 576 123 122 124
122 484 0 484 0 128 -128z m2705 -55 l2 -179 -128 -141 c-71 -78 -258 -284
-416 -457 l-287 -315 415 -3 416 -2 0 -180 0 -180 -695 0 -695 0 0 181 0 180
412 452 411 452 -411 3 -412 2 0 185 0 185 693 -2 692 -3 3 -178z m1639 61
l123 -122 0 -575 0 -576 -122 -122 -123 -123 -468 0 -469 0 -129 121 -129 122
0 571 0 571 127 127 128 128 469 0 469 0 124 -122z m1190 -333 l318 -455 3
455 2 455 210 0 210 0 0 -820 0 -820 -187 2 -188 3 -315 452 -315 451 -3 -454
-2 -454 -210 0 -210 0 0 820 0 820 184 0 184 0 319 -455z m2508 270 l0 -180
-482 -3 -483 -2 0 -135 0 -135 418 -2 417 -3 3 -177 2 -178 -420 0 -420 0 0
-140 0 -140 485 0 485 0 -2 -177 -3 -178 -570 -3 -570 -2 -122 122 -123 123 0
697 0 698 693 -2 692 -3 0 -180z"/>
<path d="M8680 10595 l0 -225 295 0 295 0 0 225 0 225 -295 0 -295 0 0 -225z"/>
<path d="M12310 10365 l0 -455 290 0 290 0 0 455 0 455 -290 0 -290 0 0 -455z"/>
<path d="M21270 10365 l0 -455 295 0 295 0 0 455 0 455 -295 0 -295 0 0 -455z"/>
</g>
</svg>
